<svg xmlns="http://www.w3.org/2000/svg" style="display:none">

  <!-- Anthropic Claude: Stylized sunburst/spark in amber-orange -->
  <symbol id="icon-anthropic" viewBox="0 0 40 40">
    <defs>
      <linearGradient id="grad-anthropic" x1="0%" y1="0%" x2="100%" y2="100%">
        <stop offset="0%" stop-color="#d97706"/>
        <stop offset="100%" stop-color="#b45309"/>
      </linearGradient>
    </defs>
    <path d="M20 4 L23.5 15.2 L35 12 L25.8 20 L35 28 L23.5 24.8 L20 36 L16.5 24.8 L5 28 L14.2 20 L5 12 L16.5 15.2 Z" fill="url(#grad-anthropic)"/>
  </symbol>

  <!-- Google Gemini: 4-pointed star/sparkle in Google blue -->
  <symbol id="icon-gemini" viewBox="0 0 40 40">
    <defs>
      <linearGradient id="grad-gemini" x1="0%" y1="0%" x2="100%" y2="100%">
        <stop offset="0%" stop-color="#669df6"/>
        <stop offset="100%" stop-color="#4285f4"/>
      </linearGradient>
    </defs>
    <path d="M20 2 C20 2 22.5 16 20 20 C20 20 16 22.5 2 20 C2 20 16 17.5 20 20 C20 20 17.5 16 20 2 Z" fill="url(#grad-gemini)" opacity="0"/>
    <path d="M20 3 Q22 14 37 20 Q22 26 20 37 Q18 26 3 20 Q18 14 20 3 Z" fill="url(#grad-gemini)"/>
  </symbol>

  <!-- OpenAI: Hexagonal aperture shape in green -->
  <symbol id="icon-openai" viewBox="0 0 40 40">
    <defs>
      <linearGradient id="grad-openai" x1="0%" y1="0%" x2="100%" y2="100%">
        <stop offset="0%" stop-color="#1ab394"/>
        <stop offset="100%" stop-color="#10a37f"/>
      </linearGradient>
    </defs>
    <g fill="none" stroke="url(#grad-openai)" stroke-width="2.4" stroke-linecap="round" stroke-linejoin="round">
      <path d="M20 5 L33 13 L33 27 L20 35 L7 27 L7 13 Z"/>
      <path d="M20 5 L20 16"/>
      <path d="M33 13 L23 19"/>
      <path d="M33 27 L23 21"/>
      <path d="M20 35 L20 24"/>
      <path d="M7 27 L17 21"/>
      <path d="M7 13 L17 19"/>
      <circle cx="20" cy="20" r="4.5" fill="url(#grad-openai)" stroke="none"/>
    </g>
  </symbol>

  <!-- Meta Llama: Infinity loop in Meta blue -->
  <symbol id="icon-meta" viewBox="0 0 40 40">
    <defs>
      <linearGradient id="grad-meta" x1="0%" y1="0%" x2="100%" y2="0%">
        <stop offset="0%" stop-color="#0668E1"/>
        <stop offset="100%" stop-color="#1877F2"/>
      </linearGradient>
    </defs>
    <path d="M12.5 13 C8 13 4 16.5 4 20 C4 23.5 8 27 12.5 27 C15.5 27 17.5 25.5 20 22 C22.5 25.5 24.5 27 27.5 27 C32 27 36 23.5 36 20 C36 16.5 32 13 27.5 13 C24.5 13 22.5 14.5 20 18 C17.5 14.5 15.5 13 12.5 13 Z M12.5 16 C14 16 15.8 17.5 18 20.5 C15.5 24 14 25 12.5 25 C9.5 25 7 22.5 7 20 C7 17.5 9.5 16 12.5 16 Z M27.5 16 C30.5 16 33 17.5 33 20 C33 22.5 30.5 25 27.5 25 C26 25 24.5 24 22 20.5 C24.2 17.5 26 16 27.5 16 Z" fill="url(#grad-meta)"/>
  </symbol>

  <!-- DeepSeek: Telescope/search lens shape in deep blue -->
  <symbol id="icon-deepseek" viewBox="0 0 40 40">
    <defs>
      <linearGradient id="grad-deepseek" x1="0%" y1="0%" x2="100%" y2="100%">
        <stop offset="0%" stop-color="#4a7cec"/>
        <stop offset="100%" stop-color="#1a56db"/>
      </linearGradient>
    </defs>
    <circle cx="17" cy="17" r="10" fill="none" stroke="url(#grad-deepseek)" stroke-width="3"/>
    <circle cx="17" cy="17" r="4.5" fill="url(#grad-deepseek)"/>
    <line x1="24.5" y1="24.5" x2="35" y2="35" stroke="url(#grad-deepseek)" stroke-width="3" stroke-linecap="round"/>
  </symbol>

  <!-- Mistral: Wind streak lines in orange -->
  <symbol id="icon-mistral" viewBox="0 0 40 40">
    <defs>
      <linearGradient id="grad-mistral" x1="0%" y1="0%" x2="100%" y2="0%">
        <stop offset="0%" stop-color="#ff8c00"/>
        <stop offset="100%" stop-color="#ff7000"/>
      </linearGradient>
    </defs>
    <g fill="none" stroke="url(#grad-mistral)" stroke-width="3" stroke-linecap="round">
      <path d="M5 10 L28 10 Q34 10 34 13 Q34 16 28 16 L22 16"/>
      <path d="M5 20 L32 20"/>
      <path d="M5 30 L24 30 Q30 30 30 27 Q30 24 24 24 L18 24"/>
    </g>
  </symbol>

  <!-- Ollama: Gear/cog shape in neutral light gray -->
  <symbol id="icon-ollama" viewBox="0 0 40 40">
    <defs>
      <linearGradient id="grad-ollama" x1="0%" y1="0%" x2="100%" y2="100%">
        <stop offset="0%" stop-color="#e5e5e5"/>
        <stop offset="100%" stop-color="#a3a3a3"/>
      </linearGradient>
    </defs>
    <path d="M18.5 4 L21.5 4 L22.5 8.5 L26 9.8 L30 7.2 L32.2 9.4 L29.8 13.5 L31.2 17 L36 18 L36 21 L31.2 22 L29.8 25.5 L32.2 29.8 L30 32 L26 29.5 L22.5 31 L21.5 36 L18.5 36 L17.5 31 L14 29.5 L10 32 L7.8 29.8 L10.2 25.5 L8.8 22 L4 21 L4 18 L8.8 17 L10.2 13.5 L7.8 9.4 L10 7.2 L14 9.8 L17.5 8.5 Z" fill="url(#grad-ollama)"/>
    <circle cx="20" cy="20" r="5.5" fill="#0a0a0b"/>
  </symbol>

</svg>
