<svg xmlns="http://www.w3.org/2000/svg" viewBox="0 0 24 24" fill="#4D6BFE"><path d="M12 0C5.373 0 0 5.373 0 12s5.373 12 12 12 12-5.373 12-12S18.627 0 12 0zm5.894 14.842c-.524 1.349-1.63 2.37-3.11 2.87-.668.227-1.378.342-2.112.342-.39 0-.783-.035-1.172-.104a7.283 7.283 0 0 1-2.26-.844c-.132-.077-.177-.106-.314-.215l-.018-.015c.41.068.915.09 1.316.073 1.08-.045 2.04-.36 2.845-.792-.94-.073-1.716-.555-2.148-1.202-.16-.239-.265-.467-.337-.71.215.04.42.06.635.052.227-.01.45-.05.663-.107-.008-.003-.016-.005-.023-.01-1.078-.306-1.895-1.263-1.982-2.38v-.038c.318.18.674.292 1.05.308-.63-.44-1.044-1.172-1.044-1.987 0-.438.113-.847.312-1.2 1.155 1.45 2.895 2.404 4.854 2.507a2.86 2.86 0 0 1-.072-.646c0-1.564 1.242-2.832 2.773-2.832.798 0 1.52.344 2.025.895a5.544 5.544 0 0 0 1.76-.686 2.836 2.836 0 0 1-1.218 1.566 5.518 5.518 0 0 0 1.592-.447 5.725 5.725 0 0 1-1.384 1.467c.005.114.008.227.008.342a8.086 8.086 0 0 1-.459 2.743z"/></svg>
