<svg xmlns="http://www.w3.org/2000/svg" viewBox="0 0 40 40" width="40" height="40" fill="none">
  <path d="M15.6 15.1c.1-3 2.3-5.5 5.7-5.9v-2c-4.7.4-8.3 3.8-8.5 8.5h-.1c-1.7.2-3.2.8-4.3 1.8C7.1 18.7 6 20.3 6 22.2c0 2 .8 3.6 2.2 4.8 1.3 1.1 3 1.7 5 1.7h5.1V26h-5c-1.4 0-2.5-.4-3.3-1.1-.8-.7-1.3-1.8-1.3-3 0-1.3.5-2.3 1.3-3 .9-.8 2.1-1.2 3.5-1.3l2.1-.1v-2.4zM21.3 7.2v2c3.4.4 5.6 2.9 5.7 5.9v2.4l2.1.1c1.4.1 2.6.5 3.5 1.3.8.7 1.3 1.7 1.3 3 0 1.2-.5 2.3-1.3 3-.8.7-1.9 1.1-3.3 1.1h-5V28.7h5.1c2 0 3.7-.6 5-1.7 1.4-1.2 2.2-2.8 2.2-4.8 0-1.9-1.1-3.5-2.4-4.7-1.1-1-2.6-1.6-4.3-1.8h-.1c-.2-4.7-3.8-8.1-8.5-8.5z" fill="#76B900"/>
  <path d="M18.3 13.8h3.4v14.9h-3.4z" fill="#76B900"/>
</svg>
