<svg xmlns="http://www.w3.org/2000/svg" viewBox="0 0 40 40" width="40" height="40" fill="none">
  <path d="M32.07 16.22a7.66 7.66 0 0 0-.66-6.3 7.75 7.75 0 0 0-8.34-3.72 7.66 7.66 0 0 0-5.77-2.58 7.75 7.75 0 0 0-7.4 5.4 7.66 7.66 0 0 0-5.12 3.72 7.75 7.75 0 0 0 .96 9.06 7.66 7.66 0 0 0 .66 6.3 7.75 7.75 0 0 0 8.34 3.72 7.66 7.66 0 0 0 5.77 2.58 7.75 7.75 0 0 0 7.4-5.4 7.66 7.66 0 0 0 5.12-3.72 7.75 7.75 0 0 0-.96-9.06zM22.51 34.1a5.81 5.81 0 0 1-3.73-1.35l.18-.1 6.2-3.58a1.01 1.01 0 0 0 .51-.88v-8.74l2.62 1.51a.09.09 0 0 1 .05.07v7.24a5.83 5.83 0 0 1-5.83 5.83zM8.08 28.55a5.81 5.81 0 0 1-.7-3.91l.19.11 6.2 3.58a1.01 1.01 0 0 0 1.01 0l7.56-4.37v3.03a.09.09 0 0 1-.04.08l-6.26 3.62a5.83 5.83 0 0 1-7.96-2.14zM6.26 14.28a5.81 5.81 0 0 1 3.03-2.56v7.36a1.01 1.01 0 0 0 .51.88l7.56 4.37-2.62 1.51a.09.09 0 0 1-.09 0l-6.26-3.62a5.83 5.83 0 0 1-2.13-7.94zM29.74 19.67l-7.56-4.37 2.62-1.51a.09.09 0 0 1 .09 0l6.26 3.62a5.83 5.83 0 0 1-.9 10.5v-7.36a1.01 1.01 0 0 0-.51-.88zM32.33 15.35l-.19-.11-6.2-3.58a1.01 1.01 0 0 0-1.01 0l-7.56 4.37v-3.03a.09.09 0 0 1 .04-.08l6.26-3.62a5.83 5.83 0 0 1 8.66 6.05zM13.84 21.87l-2.62-1.51a.09.09 0 0 1-.05-.07v-7.24a5.83 5.83 0 0 1 9.56-4.48l-.18.1-6.2 3.58a1.01 1.01 0 0 0-.51.88v8.74zM15.26 18.5L20 15.76l4.74 2.74v5.49L20 26.73l-4.74-2.74v-5.49z" fill="#10A37F"/>
</svg>
